<svg width="225" height="29" viewBox="0 0 225 29" fill="none" xmlns="http://www.w3.org/2000/svg">
<path d="M4.6875 28.2812H0.15625C0.0520833 28.2812 0 28.2161 0 28.0859L0.078125 0.644531C0.078125 0.514323 0.130208 0.449219 0.234375 0.449219H4.72656C4.83073 0.449219 4.88281 0.514323 4.88281 0.644531V10.1172L11.1523 0.605469C11.2565 0.501302 11.3542 0.449219 11.4453 0.449219H16.0352C16.1523 0.449219 16.1784 0.501302 16.1133 0.605469L9.19922 11.6406L16.9531 28.125C17.0182 28.2292 16.9531 28.2812 16.7578 28.2812H11.875C11.7448 28.2812 11.6667 28.2292 11.6406 28.125L6.23047 16.3672L4.84375 18.5547V28.0859C4.84375 28.2161 4.79167 28.2812 4.6875 28.2812ZM27.0766 28.2812H22.5453C22.4151 28.2812 22.35 28.2161 22.35 28.0859L22.3891 0.605469C22.3891 0.501302 22.4411 0.449219 22.5453 0.449219H27.0375C27.1417 0.449219 27.1938 0.501302 27.1938 0.605469L27.2328 28.0859C27.2328 28.2161 27.1807 28.2812 27.0766 28.2812ZM38.7039 28.2812H34.7C34.4917 28.2812 34.3875 28.1901 34.3875 28.0078L34.3484 0.761719C34.3484 0.553385 34.4526 0.449219 34.6609 0.449219H38.2742L45.032 16.2109L44.8367 0.761719C44.8367 0.553385 44.9539 0.449219 45.1883 0.449219H49.1531C49.3094 0.449219 49.3875 0.553385 49.3875 0.761719L49.4266 28.0469C49.4266 28.2031 49.3615 28.2812 49.2313 28.2812H45.7156L38.782 13.5547L39.075 27.9688C39.075 28.1771 38.9513 28.2812 38.7039 28.2812ZM63.9055 28.6719C62.4862 28.6719 61.1776 28.3073 59.9797 27.5781C58.7948 26.849 57.8378 25.8789 57.1086 24.668C56.3924 23.444 56.0344 22.1029 56.0344 20.6445L56.0734 7.96875C56.0734 6.48438 56.4315 5.14974 57.1477 3.96484C57.8508 2.76693 58.8013 1.8099 59.9992 1.09375C61.1971 0.364583 62.4992 0 63.9055 0C65.3638 0 66.6724 0.358073 67.8312 1.07422C69.0031 1.79036 69.9406 2.75391 70.6437 3.96484C71.3599 5.16276 71.718 6.4974 71.718 7.96875L71.757 20.6445C71.757 22.1029 71.4055 23.4375 70.7023 24.6484C69.9862 25.8724 69.0357 26.849 67.8508 27.5781C66.6659 28.3073 65.3508 28.6719 63.9055 28.6719ZM63.9055 23.8477C64.7128 23.8477 65.4159 23.5221 66.0148 22.8711C66.6138 22.207 66.9133 21.4648 66.9133 20.6445L66.8742 7.96875C66.8742 7.08333 66.5943 6.33464 66.0344 5.72266C65.4745 5.11068 64.7648 4.80469 63.9055 4.80469C63.0852 4.80469 62.382 5.10417 61.7961 5.70312C61.2102 6.30208 60.9172 7.05729 60.9172 7.96875V20.6445C60.9172 21.5169 61.2102 22.2721 61.7961 22.9102C62.382 23.5352 63.0852 23.8477 63.9055 23.8477ZM83.0719 28.2812H78.5406C78.4365 28.2812 78.3844 28.2161 78.3844 28.0859L78.4625 0.605469C78.4625 0.501302 78.5146 0.449219 78.6188 0.449219H83.5016C83.6057 0.449219 83.6969 0.501302 83.775 0.605469L87.4273 5.87891L91.0602 0.605469C91.1383 0.501302 91.2359 0.449219 91.3531 0.449219H96.2555C96.3727 0.449219 96.4313 0.501302 96.4313 0.605469L96.5094 28.0859C96.5094 28.2161 96.4573 28.2812 96.3531 28.2812H91.8219C91.7177 28.2812 91.6656 28.2161 91.6656 28.0859L91.6266 7.67578L87.4273 13.7695L83.2672 7.67578L83.2281 28.0859C83.2281 28.2161 83.176 28.2812 83.0719 28.2812ZM110.871 28.6719C109.452 28.6719 108.143 28.3073 106.945 27.5781C105.76 26.849 104.803 25.8789 104.074 24.668C103.358 23.444 103 22.1029 103 20.6445L103.039 7.96875C103.039 6.48438 103.397 5.14974 104.113 3.96484C104.816 2.76693 105.767 1.8099 106.965 1.09375C108.163 0.364583 109.465 0 110.871 0C112.329 0 113.638 0.358073 114.797 1.07422C115.969 1.79036 116.906 2.75391 117.609 3.96484C118.326 5.16276 118.684 6.4974 118.684 7.96875L118.723 20.6445C118.723 22.1029 118.371 23.4375 117.668 24.6484C116.952 25.8724 116.001 26.849 114.816 27.5781C113.632 28.3073 112.316 28.6719 110.871 28.6719ZM110.871 23.8477C111.678 23.8477 112.382 23.5221 112.98 22.8711C113.579 22.207 113.879 21.4648 113.879 20.6445L113.84 7.96875C113.84 7.08333 113.56 6.33464 113 5.72266C112.44 5.11068 111.73 4.80469 110.871 4.80469C110.051 4.80469 109.348 5.10417 108.762 5.70312C108.176 6.30208 107.883 7.05729 107.883 7.96875V20.6445C107.883 21.5169 108.176 22.2721 108.762 22.9102C109.348 23.5352 110.051 23.8477 110.871 23.8477ZM129.705 28.2812H125.702C125.493 28.2812 125.389 28.1901 125.389 28.0078L125.35 0.761719C125.35 0.553385 125.454 0.449219 125.662 0.449219H129.276L136.034 16.2109L135.838 0.761719C135.838 0.553385 135.955 0.449219 136.19 0.449219H140.155C140.311 0.449219 140.389 0.553385 140.389 0.761719L140.428 28.0469C140.428 28.2031 140.363 28.2812 140.233 28.2812H136.717L129.784 13.5547L130.077 27.9688C130.077 28.1771 129.953 28.2812 129.705 28.2812ZM154.302 28.6719C152.882 28.6719 151.574 28.3073 150.376 27.5781C149.191 26.849 148.24 25.8789 147.524 24.668C146.821 23.444 146.47 22.1029 146.47 20.6445V18.8086C146.47 18.6654 146.535 18.5938 146.665 18.5938H151.157C151.261 18.5938 151.313 18.6654 151.313 18.8086V20.6445C151.313 21.5169 151.606 22.2721 152.192 22.9102C152.778 23.5352 153.481 23.8477 154.302 23.8477C155.135 23.8477 155.845 23.5286 156.43 22.8906C157.016 22.2396 157.309 21.4909 157.309 20.6445C157.309 19.668 156.671 18.8151 155.395 18.0859C155.187 17.9557 154.914 17.7995 154.575 17.6172C154.249 17.4219 153.859 17.2005 153.403 16.9531C152.947 16.7057 152.505 16.4648 152.075 16.2305C151.645 15.9831 151.229 15.7487 150.825 15.5273C149.367 14.668 148.279 13.5938 147.563 12.3047C146.86 11.0026 146.509 9.54427 146.509 7.92969C146.509 6.44531 146.873 5.10417 147.602 3.90625C148.332 2.72135 149.282 1.78385 150.454 1.09375C151.639 0.390625 152.921 0.0390625 154.302 0.0390625C155.721 0.0390625 157.023 0.390625 158.208 1.09375C159.393 1.8099 160.337 2.76042 161.04 3.94531C161.756 5.13021 162.114 6.45833 162.114 7.92969V11.2109C162.114 11.3151 162.062 11.3672 161.958 11.3672H157.466C157.361 11.3672 157.309 11.3151 157.309 11.2109L157.27 7.92969C157.27 6.99219 156.977 6.23047 156.391 5.64453C155.805 5.05859 155.109 4.76562 154.302 4.76562C153.481 4.76562 152.778 5.07812 152.192 5.70312C151.606 6.32812 151.313 7.07031 151.313 7.92969C151.313 8.80208 151.496 9.53125 151.86 10.1172C152.238 10.7031 152.921 11.263 153.911 11.7969C154.015 11.849 154.256 11.9792 154.634 12.1875C155.011 12.3958 155.428 12.6302 155.884 12.8906C156.352 13.138 156.776 13.3659 157.153 13.5742C157.531 13.7695 157.759 13.8867 157.837 13.9258C159.165 14.668 160.213 15.5794 160.981 16.6602C161.762 17.7409 162.153 19.069 162.153 20.6445C162.153 22.168 161.802 23.5352 161.098 24.7461C160.382 25.957 159.432 26.9141 158.247 27.6172C157.062 28.3203 155.747 28.6719 154.302 28.6719ZM177.062 28.2812H172.55C172.433 28.2812 172.374 28.2161 172.374 28.0859V5.27344H167.179C167.049 5.27344 166.984 5.20833 166.984 5.07812L167.023 0.605469C167.023 0.501302 167.075 0.449219 167.179 0.449219H182.374C182.517 0.449219 182.589 0.501302 182.589 0.605469V5.07812C182.589 5.20833 182.537 5.27344 182.433 5.27344H177.179L177.218 28.0859C177.218 28.2161 177.166 28.2812 177.062 28.2812ZM201.228 28.2812H188.298C188.194 28.2812 188.142 28.2161 188.142 28.0859L188.181 0.605469C188.181 0.501302 188.233 0.449219 188.337 0.449219H201.189C201.293 0.449219 201.345 0.514323 201.345 0.644531V5.11719C201.345 5.22135 201.293 5.27344 201.189 5.27344H192.986V11.5234H201.189C201.293 11.5234 201.345 11.5755 201.345 11.6797L201.384 16.2109C201.384 16.3151 201.332 16.3672 201.228 16.3672H192.986V23.3594H201.228C201.332 23.3594 201.384 23.4245 201.384 23.5547V28.125C201.384 28.2292 201.332 28.2812 201.228 28.2812ZM213.227 28.2812H208.695C208.591 28.2812 208.539 28.2161 208.539 28.0859L208.617 0.605469C208.617 0.501302 208.669 0.449219 208.773 0.449219H216.859C218.305 0.449219 219.633 0.800781 220.844 1.50391C222.055 2.20703 223.018 3.15104 223.734 4.33594C224.464 5.52083 224.828 6.86198 224.828 8.35938C224.828 9.33594 224.678 10.2214 224.379 11.0156C224.079 11.8099 223.728 12.4805 223.324 13.0273C222.934 13.5742 222.576 13.9779 222.25 14.2383C223.695 15.8398 224.418 17.7214 224.418 19.8828L224.457 28.0859C224.457 28.2161 224.392 28.2812 224.262 28.2812H219.73C219.626 28.2812 219.574 28.2422 219.574 28.1641V19.8828C219.574 18.9193 219.236 18.0859 218.559 17.3828C217.882 16.6797 217.048 16.3281 216.059 16.3281H213.422L213.383 28.0859C213.383 28.2161 213.331 28.2812 213.227 28.2812ZM216.859 5.23438H213.422V11.5234H216.859C217.68 11.5234 218.409 11.2174 219.047 10.6055C219.698 9.99349 220.023 9.24479 220.023 8.35938C220.023 7.51302 219.711 6.78385 219.086 6.17188C218.461 5.54688 217.719 5.23438 216.859 5.23438Z" fill="#FF3D81"/>
</svg>
